<svg width="33" height="32" fill="none" xmlns="http://www.w3.org/2000/svg"><path fill-rule="evenodd" clip-rule="evenodd" d="M16.293 12a4 4 0 1 0 0 8 4 4 0 0 0 0-8Zm-6 4a6 6 0 1 1 12 0 6 6 0 0 1-12 0Z" fill="#858584"/><path fill-rule="evenodd" clip-rule="evenodd" d="M10.793 5.5a5 5 0 0 0-5 5v11a5 5 0 0 0 5 5h11a5 5 0 0 0 5-5v-11a5 5 0 0 0-5-5h-11Zm-7 5a7 7 0 0 1 7-7h11a7 7 0 0 1 7 7v11a7 7 0 0 1-7 7h-11a7 7 0 0 1-7-7v-11Z" fill="#858584"/><path d="M22.793 11a1.5 1.5 0 1 0 0-3 1.5 1.5 0 0 0 0 3Z" fill="#858584"/></svg>