<svg width="33" height="32" fill="none" xmlns="http://www.w3.org/2000/svg"><path fill-rule="evenodd" clip-rule="evenodd" d="M13.821 11.118a1 1 0 0 1 1.027.05l6 4a1 1 0 0 1 0 1.664l-6 4A1 1 0 0 1 13.293 20v-8a1 1 0 0 1 .528-.882Zm1.472 2.75v4.263L18.49 16l-3.197-2.132Z" fill="#858584"/><path fill-rule="evenodd" clip-rule="evenodd" d="M16.291 5.05h-.079l-.236.002c-.204.003-.497.007-.862.018-.73.022-1.747.068-2.897.166-2.277.192-5.175.59-7.406 1.443l-.015.006A3.013 3.013 0 0 0 3 8.725v.003c-.312 1.219-.707 3.479-.707 7.273 0 3.794.395 6.054.706 7.272l.001.004a3.012 3.012 0 0 0 1.796 2.04l.015.006c2.231.852 5.13 1.25 7.406 1.443a54.065 54.065 0 0 0 3.995.185h.162c.055 0 .134 0 .236-.002a54.077 54.077 0 0 0 3.76-.183c2.276-.192 5.174-.591 7.405-1.444l.015-.005a3.011 3.011 0 0 0 1.796-2.04v-.004c.312-1.218.707-3.478.707-7.272 0-3.795-.395-6.054-.706-7.273l-.001-.004a3.013 3.013 0 0 0-1.796-2.04l-.015-.005c-2.231-.852-5.13-1.251-7.406-1.443a54.214 54.214 0 0 0-3.995-.185h-.083Zm-.003 19.9h.301c.192-.003.473-.007.823-.018a52.078 52.078 0 0 0 2.789-.159c2.236-.189 4.896-.57 6.852-1.316a1.011 1.011 0 0 0 .597-.68c.263-1.033.643-3.123.643-6.776 0-3.653-.38-5.743-.643-6.775a1.013 1.013 0 0 0-.597-.682C25.097 7.8 22.437 7.417 20.2 7.23a52.216 52.216 0 0 0-3.831-.178h-.154l-.219.001a52.214 52.214 0 0 0-3.612.176c-2.236.19-4.896.57-6.852 1.316a1.013 1.013 0 0 0-.597.682c-.263 1.032-.643 3.122-.643 6.775 0 3.653.38 5.743.643 6.775a1.013 1.013 0 0 0 .597.681c1.956.746 4.616 1.127 6.852 1.316a52.075 52.075 0 0 0 3.831.178H16.288Z" fill="#858584"/></svg>